<svg width="14" height="14" viewBox="0 0 14 14" fill="none" xmlns="http://www.w3.org/2000/svg">
<g clip-path="url(#clip0_46_32)">
<path fill-rule="evenodd" clip-rule="evenodd" d="M8.09 0.0839759C7.99269 0.0687425 7.89333 0.0728249 7.7976 0.0959898C7.70187 0.119155 7.61164 0.160949 7.53206 0.218985C7.45248 0.277022 7.38511 0.350165 7.3338 0.434237C7.28248 0.51831 7.24823 0.611666 7.233 0.708976C7.21777 0.806285 7.22185 0.905643 7.24501 1.00137C7.26818 1.09711 7.30997 1.18734 7.36801 1.26692C7.42605 1.3465 7.49919 1.41387 7.58326 1.46518C7.66733 1.51649 7.76069 1.55074 7.858 1.56598C9.22225 1.78566 10.4539 2.51064 11.3081 3.59682C12.1623 4.683 12.5765 6.05083 12.4684 7.42842C12.3603 8.80602 11.7378 10.0925 10.7247 11.0321C9.71147 11.9718 8.38182 12.4958 7 12.5C5.8972 12.5002 4.81979 12.169 3.90754 11.5493C2.99528 10.9297 2.29028 10.0502 1.884 9.02498C1.84988 8.93055 1.79714 8.84394 1.72892 8.77027C1.6607 8.69661 1.57839 8.63739 1.48685 8.59613C1.39532 8.55487 1.29644 8.53241 1.19606 8.53008C1.09569 8.52775 0.995868 8.54559 0.902519 8.58256C0.809169 8.61952 0.724192 8.67485 0.652625 8.74527C0.581058 8.81569 0.524358 8.89976 0.485887 8.9925C0.447416 9.08524 0.427957 9.18476 0.428663 9.28515C0.42937 9.38555 0.450228 9.48479 0.49 9.57698C1.09077 11.0904 2.20021 12.3471 3.62745 13.131C5.05469 13.9148 6.71049 14.1767 8.30996 13.8716C9.90944 13.5665 11.3526 12.7135 12.3911 11.4593C13.4296 10.2052 13.9985 8.62829 14 6.99998C13.9999 5.33225 13.4046 3.71931 12.3212 2.45145C11.2377 1.18359 9.73732 0.344067 8.09 0.0839759ZM6.164 0.660976C6.18865 0.756449 6.19423 0.855845 6.18042 0.953477C6.16661 1.05111 6.13369 1.14506 6.08353 1.22995C6.03338 1.31485 5.96697 1.38902 5.88812 1.44822C5.80927 1.50742 5.71952 1.5505 5.624 1.57498C5.37348 1.63944 5.12785 1.72165 4.889 1.82098C4.79806 1.8588 4.70056 1.87833 4.60207 1.87848C4.50358 1.87862 4.40602 1.85936 4.31498 1.82179C4.22393 1.78423 4.14117 1.72911 4.07143 1.65956C4.00168 1.59002 3.94632 1.50742 3.9085 1.41648C3.87068 1.32554 3.85114 1.22804 3.851 1.12954C3.85086 1.03105 3.87012 0.933499 3.90768 0.842451C3.94524 0.751403 4.00037 0.668645 4.06991 0.598902C4.13946 0.529159 4.22206 0.473797 4.313 0.435976C4.615 0.309976 4.928 0.204976 5.251 0.121976C5.34641 0.0974766 5.4457 0.0920107 5.54322 0.10589C5.64074 0.11977 5.73457 0.152723 5.81935 0.202867C5.90413 0.253012 5.97821 0.319366 6.03734 0.398141C6.09648 0.476915 6.13951 0.565567 6.164 0.660976ZM3.185 1.89398C3.32335 2.03671 3.39938 2.22853 3.39638 2.42729C3.39338 2.62604 3.31159 2.81548 3.169 2.95398C2.79717 3.31638 2.47745 3.72865 2.219 4.17898C2.17146 4.26694 2.10682 4.3445 2.02886 4.40712C1.95091 4.46973 1.86122 4.51613 1.76508 4.54357C1.66894 4.57102 1.56828 4.57897 1.46902 4.56694C1.36976 4.55492 1.2739 4.52317 1.18709 4.47357C1.10028 4.42396 1.02426 4.3575 0.963512 4.27808C0.902761 4.19867 0.858502 4.10791 0.833337 4.01115C0.808173 3.91438 0.802611 3.81356 0.816978 3.71461C0.831346 3.61566 0.865353 3.52059 0.917 3.43498C1.24451 2.86179 1.65118 2.33764 2.125 1.87798C2.26773 1.73963 2.45955 1.6636 2.65831 1.6666C2.85707 1.6696 3.04651 1.75138 3.185 1.89398ZM0.916 5.27998C1.1129 5.30774 1.29072 5.41256 1.41036 5.57139C1.53 5.73022 1.58167 5.93006 1.554 6.12698C1.51793 6.38373 1.49989 6.6427 1.5 6.90198C1.5 7.10089 1.42098 7.29165 1.28033 7.43231C1.13968 7.57296 0.948912 7.65198 0.75 7.65198C0.551088 7.65198 0.360322 7.57296 0.21967 7.43231C0.0790176 7.29165 0 7.10089 0 6.90198C0 6.56898 0.023 6.23998 0.069 5.91798C0.0967609 5.72107 0.20158 5.54326 0.360411 5.42362C0.519243 5.30398 0.719085 5.25231 0.916 5.27998ZM4.5 8.88198V5.11798C4.50009 4.94758 4.54372 4.78004 4.62674 4.63125C4.70977 4.48245 4.82944 4.35734 4.97439 4.26778C5.11935 4.17822 5.28479 4.12719 5.45501 4.11952C5.62522 4.11186 5.79458 4.14781 5.947 4.22398L9.711 6.10598C9.87688 6.18911 10.0164 6.31677 10.1138 6.47465C10.2113 6.63253 10.2629 6.81443 10.2629 6.99998C10.2629 7.18553 10.2113 7.36742 10.1138 7.5253C10.0164 7.68319 9.87688 7.81084 9.711 7.89398L5.947 9.77598C5.79458 9.85214 5.62522 9.8881 5.45501 9.88043C5.28479 9.87276 5.11935 9.82173 4.97439 9.73217C4.82944 9.64261 4.70977 9.5175 4.62674 9.3687C4.54372 9.21991 4.50009 9.05237 4.5 8.88198Z" fill="white"/>
</g>
<defs>
<clipPath id="clip0_46_32">
<rect width="14" height="14" fill="white"/>
</clipPath>
</defs>
</svg>
