<svg width="22" height="23" viewBox="0 0 22 23" fill="none" xmlns="http://www.w3.org/2000/svg">
<path d="M21.3125 6.50323V4.99673H19.6267V1.8867C19.6241 1.58926 19.5087 1.30507 19.3059 1.09647C19.1031 0.887881 18.8293 0.771935 18.5448 0.774077H3.45516C3.17064 0.771935 2.89694 0.887881 2.69411 1.09647C2.49127 1.30507 2.37588 1.58926 2.37325 1.8867V21.2031C2.37588 21.5005 2.49127 21.7847 2.69411 21.9933C2.89694 22.2019 3.17064 22.3179 3.45516 22.3157H18.5448C18.8293 22.3179 19.1031 22.2019 19.3059 21.9933C19.5087 21.7847 19.6241 21.5005 19.6267 21.2031V18.0032H21.3125V16.4967H19.6267V12.2532H21.3125V10.7467H19.6267V6.50323H21.3125ZM18.1857 10.7467H16.1562V12.2532H18.1857V16.4967H16.1562V18.0032H18.1857V20.8092H3.81425V2.28058H18.1857V4.99673H16.1562V6.50323H18.1857V10.7467Z" fill="black"/>
<path d="M14.2778 13.6137L13.0427 12.7743L13.6365 11.2625V8.88742C13.6365 8.1045 13.339 7.35365 12.8095 6.80004C12.28 6.24644 11.5618 5.93542 10.8129 5.93542C10.064 5.93542 9.3458 6.24644 8.81626 6.80004C8.28673 7.35365 7.98924 8.1045 7.98924 8.88742V11.2484L8.53584 12.8064L7.34793 13.6137C7.0525 13.8136 6.80975 14.0878 6.6419 14.4112C6.47404 14.7345 6.38644 15.0967 6.3871 15.4647V17.7948H15.2387V15.4647C15.2393 15.0967 15.1517 14.7345 14.9839 14.4112C14.816 14.0878 14.5733 13.8136 14.2778 13.6137ZM13.8637 16.3573H7.7621V15.4647C7.76188 15.3363 7.79244 15.21 7.85099 15.0972C7.90954 14.9844 7.99421 14.8887 8.09726 14.819L10.2041 13.3872L9.36424 10.9929V8.88742C9.36424 8.48575 9.51686 8.10053 9.78854 7.81651C10.0602 7.53249 10.4287 7.37292 10.8129 7.37292C11.1971 7.37292 11.5656 7.53249 11.8372 7.81651C12.1089 8.10053 12.2615 8.48575 12.2615 8.88742V10.9788L11.3377 13.3304L13.5285 14.819C13.6316 14.8887 13.7162 14.9844 13.7748 15.0972C13.8333 15.21 13.8639 15.3363 13.8637 15.4647V16.3573Z" fill="black"/>
</svg>
