<svg width="22" height="22" viewBox="0 0 22 22" fill="none" xmlns="http://www.w3.org/2000/svg">
<path fill-rule="evenodd" clip-rule="evenodd" d="M12.7129 0.0142625C12.5599 -0.00981208 12.4038 -0.00336037 12.2534 0.0332492C12.1029 0.0698588 11.9611 0.135909 11.8361 0.22763C11.711 0.31935 11.6052 0.434944 11.5245 0.567811C11.4439 0.700678 11.3901 0.848217 11.3661 1.002C11.3422 1.15579 11.3486 1.31281 11.385 1.46411C11.4214 1.6154 11.4871 1.758 11.5783 1.88377C11.6695 2.00953 11.7844 2.116 11.9166 2.1971C12.0487 2.27819 12.1954 2.33232 12.3483 2.35639C14.4921 2.70358 16.4276 3.84933 17.7699 5.56591C19.1122 7.28249 19.7631 9.4442 19.5933 11.6213C19.4234 13.7985 18.4452 15.8316 16.853 17.3166C15.2609 18.8016 13.1714 19.6297 11 19.6363C9.26703 19.6367 7.57396 19.1132 6.14041 18.134C4.70687 17.1547 3.59902 15.7648 2.96057 14.1445C2.90695 13.9953 2.82408 13.8584 2.71688 13.742C2.60967 13.6256 2.48032 13.532 2.33649 13.4668C2.19265 13.4016 2.03726 13.3661 1.87953 13.3624C1.7218 13.3587 1.56493 13.3869 1.41824 13.4453C1.27155 13.5037 1.13802 13.5912 1.02555 13.7025C0.913091 13.8137 0.823992 13.9466 0.763537 14.0932C0.703083 14.2397 0.672504 14.397 0.673614 14.5557C0.674724 14.7143 0.707501 14.8712 0.77 15.0169C1.71406 17.4087 3.45747 19.3948 5.70028 20.6335C7.94309 21.8723 10.5451 22.2862 13.0585 21.804C15.572 21.3218 17.8398 19.9738 19.4717 17.9917C21.1036 16.0097 21.9977 13.5176 22 10.9442C21.9999 8.30856 21.0644 5.7595 19.3618 3.75579C17.6593 1.75208 15.3015 0.425307 12.7129 0.0142625ZM9.68629 0.926145C9.72502 1.07703 9.73379 1.23411 9.71209 1.38841C9.69039 1.54271 9.63865 1.69118 9.55984 1.82535C9.48102 1.95952 9.37667 2.07673 9.25276 2.1703C9.12885 2.26386 8.98781 2.33193 8.83771 2.37062C8.44403 2.47249 8.05806 2.60241 7.68271 2.75939C7.53981 2.81916 7.38659 2.85004 7.23182 2.85026C7.07705 2.85049 6.92375 2.82005 6.78068 2.76069C6.6376 2.70133 6.50755 2.6142 6.39796 2.5043C6.28836 2.39439 6.20136 2.26385 6.14193 2.12013C6.0825 1.97641 6.05179 1.82232 6.05157 1.66667C6.05135 1.51101 6.08162 1.35684 6.14064 1.21295C6.19967 1.06906 6.28629 0.938266 6.39558 0.828045C6.50486 0.717824 6.63467 0.63033 6.77757 0.570558C7.25214 0.37143 7.744 0.205489 8.25157 0.0743172C8.40149 0.0355989 8.55753 0.0269606 8.71078 0.0488955C8.86402 0.0708304 9.01146 0.122909 9.14469 0.202157C9.27792 0.281405 9.39432 0.38627 9.48725 0.510764C9.58018 0.635258 9.64781 0.775362 9.68629 0.926145ZM5.005 2.87476C5.2224 3.10034 5.34188 3.40349 5.33716 3.7176C5.33245 4.03171 5.20393 4.3311 4.97986 4.54997C4.39555 5.12271 3.89314 5.77425 3.487 6.48594C3.4123 6.62496 3.31071 6.74754 3.18821 6.8465C3.06572 6.94545 2.92478 7.01877 2.7737 7.06215C2.62261 7.10553 2.46443 7.11808 2.30845 7.09908C2.15247 7.08008 2.00185 7.02991 1.86543 6.95151C1.72901 6.87312 1.60956 6.76808 1.51409 6.64257C1.41862 6.51707 1.34907 6.37364 1.30953 6.22071C1.26999 6.06778 1.26125 5.90845 1.28382 5.75207C1.3064 5.5957 1.35984 5.44544 1.441 5.31014C1.95566 4.40429 2.59471 3.57592 3.33929 2.84948C3.56358 2.63083 3.86501 2.51068 4.17735 2.51542C4.48968 2.52016 4.78737 2.64941 5.005 2.87476ZM1.43943 8.22595C1.74885 8.26982 2.02827 8.43548 2.21628 8.68649C2.40428 8.93751 2.48547 9.25333 2.442 9.56454C2.38532 9.97031 2.35697 10.3796 2.35714 10.7893C2.35714 11.1037 2.23297 11.4052 2.01195 11.6275C1.79092 11.8497 1.49115 11.9746 1.17857 11.9746C0.865995 11.9746 0.566221 11.8497 0.345196 11.6275C0.124171 11.4052 0 11.1037 0 10.7893C0 10.2631 0.0361429 9.74312 0.108429 9.23424C0.152053 8.92306 0.316768 8.64203 0.566361 8.45296C0.815953 8.26388 1.12999 8.18223 1.43943 8.22595ZM7.07143 13.9185V7.96993C7.07157 7.70064 7.14013 7.43586 7.2706 7.20071C7.40107 6.96555 7.58912 6.76783 7.81691 6.62629C8.04469 6.48475 8.30467 6.4041 8.57215 6.39198C8.83964 6.37987 9.10577 6.43669 9.34529 6.55706L15.2601 9.53135C15.5208 9.66274 15.74 9.86448 15.8932 10.114C16.0463 10.3635 16.1275 10.651 16.1275 10.9442C16.1275 11.2375 16.0463 11.5249 15.8932 11.7744C15.74 12.0239 15.5208 12.2257 15.2601 12.3571L9.34529 15.3314C9.10577 15.4517 8.83964 15.5086 8.57215 15.4964C8.30467 15.4843 8.04469 15.4037 7.81691 15.2621C7.58912 15.1206 7.40107 14.9229 7.2706 14.6877C7.14013 14.4526 7.07157 14.1878 7.07143 13.9185Z" fill="#2BA4BE"/>
</svg>
