<svg width="20" height="21" viewBox="0 0 20 21" fill="none" xmlns="http://www.w3.org/2000/svg">
<path fill-rule="evenodd" clip-rule="evenodd" d="M5.55556 4.66667C5.55556 3.42899 6.02381 2.242 6.8573 1.36683C7.6908 0.491665 8.82126 0 10 0C11.1787 0 12.3092 0.491665 13.1427 1.36683C13.9762 2.242 14.4444 3.42899 14.4444 4.66667C14.4444 5.90434 13.9762 7.09133 13.1427 7.9665C12.3092 8.84167 11.1787 9.33333 10 9.33333C8.82126 9.33333 7.6908 8.84167 6.8573 7.9665C6.02381 7.09133 5.55556 5.90434 5.55556 4.66667ZM5.55556 11.6667C4.08213 11.6667 2.66905 12.2812 1.62718 13.3752C0.585316 14.4692 0 15.9529 0 17.5C0 18.4283 0.35119 19.3185 0.976311 19.9749C1.60143 20.6313 2.44928 21 3.33333 21H16.6667C17.5507 21 18.3986 20.6313 19.0237 19.9749C19.6488 19.3185 20 18.4283 20 17.5C20 15.9529 19.4147 14.4692 18.3728 13.3752C17.3309 12.2812 15.9179 11.6667 14.4444 11.6667H5.55556Z" fill="white"/>
</svg>
